<mxfile host="65bd71144e">
    <diagram id="5xm4DRgz7SmiRbcEIGr9" name="第 1 页">
        <mxGraphModel dx="602" dy="388" grid="1" gridSize="10" guides="1" tooltips="1" connect="1" arrows="1" fold="1" page="1" pageScale="1" pageWidth="827" pageHeight="1169" math="0" shadow="0">
            <root>
                <mxCell id="0"/>
                <mxCell id="1" parent="0"/>
                <mxCell id="19" value="&lt;font style=&quot;font-size: 18px;&quot;&gt;&lt;b&gt;JFrame&lt;/b&gt;&lt;/font&gt;" style="html=1;" parent="1" vertex="1">
                    <mxGeometry x="544" y="276" width="80" height="30" as="geometry"/>
                </mxCell>
                <mxCell id="20" value="ClientGUI" style="swimlane;fontStyle=1;align=center;verticalAlign=top;childLayout=stackLayout;horizontal=1;startSize=26;horizontalStack=0;resizeParent=1;resizeParentMax=0;resizeLast=0;collapsible=1;marginBottom=0;fontSize=18;" parent="1" vertex="1" collapsed="1">
                    <mxGeometry x="660" y="710" width="110" height="50" as="geometry">
                        <mxRectangle x="260" y="290" width="360" height="242" as="alternateBounds"/>
                    </mxGeometry>
                </mxCell>
                <mxCell id="21" value="- inputField: JTextField" style="text;strokeColor=none;fillColor=none;align=left;verticalAlign=top;spacingLeft=4;spacingRight=4;overflow=hidden;rotatable=0;points=[[0,0.5],[1,0.5]];portConstraint=eastwest;fontSize=18;" parent="20" vertex="1">
                    <mxGeometry y="26" width="360" height="26" as="geometry"/>
                </mxCell>
                <mxCell id="27" value="- chatArea: JTextArea" style="text;strokeColor=none;fillColor=none;align=left;verticalAlign=top;spacingLeft=4;spacingRight=4;overflow=hidden;rotatable=0;points=[[0,0.5],[1,0.5]];portConstraint=eastwest;fontSize=18;" parent="20" vertex="1">
                    <mxGeometry y="52" width="360" height="26" as="geometry"/>
                </mxCell>
                <mxCell id="30" value="- sendButton: JButton" style="text;strokeColor=none;fillColor=none;align=left;verticalAlign=top;spacingLeft=4;spacingRight=4;overflow=hidden;rotatable=0;points=[[0,0.5],[1,0.5]];portConstraint=eastwest;fontSize=18;" parent="20" vertex="1">
                    <mxGeometry y="78" width="360" height="26" as="geometry"/>
                </mxCell>
                <mxCell id="31" value="- chatList: JList&lt;String&gt;&#10;&#10;" style="text;strokeColor=none;fillColor=none;align=left;verticalAlign=top;spacingLeft=4;spacingRight=4;overflow=hidden;rotatable=0;points=[[0,0.5],[1,0.5]];portConstraint=eastwest;fontSize=18;" parent="20" vertex="1">
                    <mxGeometry y="104" width="360" height="26" as="geometry"/>
                </mxCell>
                <mxCell id="32" value="- chatListModel: DefaultListModel&lt;String&gt;" style="text;strokeColor=none;fillColor=none;align=left;verticalAlign=top;spacingLeft=4;spacingRight=4;overflow=hidden;rotatable=0;points=[[0,0.5],[1,0.5]];portConstraint=eastwest;fontSize=18;" parent="20" vertex="1">
                    <mxGeometry y="130" width="360" height="26" as="geometry"/>
                </mxCell>
                <mxCell id="33" value="- currentChat: String" style="text;strokeColor=none;fillColor=none;align=left;verticalAlign=top;spacingLeft=4;spacingRight=4;overflow=hidden;rotatable=0;points=[[0,0.5],[1,0.5]];portConstraint=eastwest;fontSize=18;" parent="20" vertex="1">
                    <mxGeometry y="156" width="360" height="26" as="geometry"/>
                </mxCell>
                <mxCell id="34" value="- currentChat: String" style="text;strokeColor=none;fillColor=none;align=left;verticalAlign=top;spacingLeft=4;spacingRight=4;overflow=hidden;rotatable=0;points=[[0,0.5],[1,0.5]];portConstraint=eastwest;fontSize=18;" parent="20" vertex="1">
                    <mxGeometry y="182" width="360" height="26" as="geometry"/>
                </mxCell>
                <mxCell id="22" value="" style="line;strokeWidth=1;fillColor=none;align=left;verticalAlign=middle;spacingTop=-1;spacingLeft=3;spacingRight=3;rotatable=0;labelPosition=right;points=[];portConstraint=eastwest;strokeColor=inherit;fontSize=18;" parent="20" vertex="1">
                    <mxGeometry y="208" width="360" height="8" as="geometry"/>
                </mxCell>
                <mxCell id="23" value="+ method(type): type" style="text;strokeColor=none;fillColor=none;align=left;verticalAlign=top;spacingLeft=4;spacingRight=4;overflow=hidden;rotatable=0;points=[[0,0.5],[1,0.5]];portConstraint=eastwest;fontSize=18;" parent="20" vertex="1">
                    <mxGeometry y="216" width="360" height="26" as="geometry"/>
                </mxCell>
                <mxCell id="35" value="ChatClient" style="swimlane;fontStyle=1;align=center;verticalAlign=top;childLayout=stackLayout;horizontal=1;startSize=26;horizontalStack=0;resizeParent=1;resizeParentMax=0;resizeLast=0;collapsible=1;marginBottom=0;whiteSpace=wrap;html=1;" parent="1" vertex="1" collapsed="1">
                    <mxGeometry x="260" y="180" width="100" height="30" as="geometry">
                        <mxRectangle x="20" y="30" width="340" height="104" as="alternateBounds"/>
                    </mxGeometry>
                </mxCell>
                <mxCell id="36" value="- initializeUI(String serverAddress, String serverPort): void" style="text;strokeColor=default;fillColor=none;align=left;verticalAlign=top;spacingLeft=4;spacingRight=4;overflow=hidden;rotatable=0;points=[[0,0.5],[1,0.5]];portConstraint=eastwest;whiteSpace=wrap;html=1;" parent="35" vertex="1">
                    <mxGeometry y="26" width="340" height="26" as="geometry"/>
                </mxCell>
                <mxCell id="54" value="- initializeUI(String serverAddress, String serverPort): void" style="text;strokeColor=none;fillColor=none;align=left;verticalAlign=top;spacingLeft=4;spacingRight=4;overflow=hidden;rotatable=0;points=[[0,0.5],[1,0.5]];portConstraint=eastwest;whiteSpace=wrap;html=1;" parent="35" vertex="1">
                    <mxGeometry y="52" width="340" height="26" as="geometry"/>
                </mxCell>
                <mxCell id="37" value="- ChatClient(String serverAddress, String serverPort): " style="text;strokeColor=none;fillColor=none;align=left;verticalAlign=top;spacingLeft=4;spacingRight=4;overflow=hidden;rotatable=0;points=[[0,0.5],[1,0.5]];portConstraint=eastwest;whiteSpace=wrap;html=1;" parent="35" vertex="1">
                    <mxGeometry y="78" width="340" height="26" as="geometry"/>
                </mxCell>
                <mxCell id="87" value="" style="endArrow=open;html=1;endSize=12;startArrow=diamondThin;startSize=14;startFill=1;edgeStyle=orthogonalEdgeStyle;align=left;verticalAlign=bottom;" edge="1" parent="35">
                    <mxGeometry x="-1" y="3" relative="1" as="geometry">
                        <mxPoint x="80" y="20" as="sourcePoint"/>
                        <mxPoint x="240" y="20" as="targetPoint"/>
                    </mxGeometry>
                </mxCell>
                <mxCell id="38" value="ChatHistoryManager" style="swimlane;fontStyle=1;align=center;verticalAlign=top;childLayout=stackLayout;horizontal=1;startSize=26;horizontalStack=0;resizeParent=1;resizeParentMax=0;resizeLast=0;collapsible=1;marginBottom=0;whiteSpace=wrap;html=1;" parent="1" vertex="1" collapsed="1">
                    <mxGeometry x="50" y="410" width="160" height="30" as="geometry">
                        <mxRectangle x="300" y="170" width="390" height="182" as="alternateBounds"/>
                    </mxGeometry>
                </mxCell>
                <mxCell id="39" value="- appendMessage(String chatName, String message): void" style="text;strokeColor=none;fillColor=none;align=left;verticalAlign=top;spacingLeft=4;spacingRight=4;overflow=hidden;rotatable=0;points=[[0,0.5],[1,0.5]];portConstraint=eastwest;whiteSpace=wrap;html=1;" parent="38" vertex="1">
                    <mxGeometry y="26" width="390" height="26" as="geometry"/>
                </mxCell>
                <mxCell id="40" value="- getChatHistory(String chatName): String" style="text;strokeColor=none;fillColor=none;align=left;verticalAlign=top;spacingLeft=4;spacingRight=4;overflow=hidden;rotatable=0;points=[[0,0.5],[1,0.5]];portConstraint=eastwest;whiteSpace=wrap;html=1;" parent="38" vertex="1">
                    <mxGeometry y="52" width="390" height="26" as="geometry"/>
                </mxCell>
                <mxCell id="41" value="- deleteChatHistory(String chatName): void" style="text;strokeColor=none;fillColor=none;align=left;verticalAlign=top;spacingLeft=4;spacingRight=4;overflow=hidden;rotatable=0;points=[[0,0.5],[1,0.5]];portConstraint=eastwest;whiteSpace=wrap;html=1;" parent="38" vertex="1">
                    <mxGeometry y="78" width="390" height="26" as="geometry"/>
                </mxCell>
                <mxCell id="42" value="- loadChatHistory(String usrname): void" style="text;strokeColor=none;fillColor=none;align=left;verticalAlign=top;spacingLeft=4;spacingRight=4;overflow=hidden;rotatable=0;points=[[0,0.5],[1,0.5]];portConstraint=eastwest;whiteSpace=wrap;html=1;" parent="38" vertex="1">
                    <mxGeometry y="104" width="390" height="26" as="geometry"/>
                </mxCell>
                <mxCell id="43" value="- saveChatHistory(String usrname): void" style="text;strokeColor=none;fillColor=none;align=left;verticalAlign=top;spacingLeft=4;spacingRight=4;overflow=hidden;rotatable=0;points=[[0,0.5],[1,0.5]];portConstraint=eastwest;whiteSpace=wrap;html=1;" parent="38" vertex="1">
                    <mxGeometry y="130" width="390" height="26" as="geometry"/>
                </mxCell>
                <mxCell id="44" value="- ChatHistoryManager(): " style="text;strokeColor=none;fillColor=none;align=left;verticalAlign=top;spacingLeft=4;spacingRight=4;overflow=hidden;rotatable=0;points=[[0,0.5],[1,0.5]];portConstraint=eastwest;whiteSpace=wrap;html=1;" parent="38" vertex="1">
                    <mxGeometry y="156" width="390" height="26" as="geometry"/>
                </mxCell>
                <mxCell id="55" value="ClientGUI" style="swimlane;fontStyle=1;align=center;verticalAlign=top;childLayout=stackLayout;horizontal=1;startSize=26;horizontalStack=0;resizeParent=1;resizeParentMax=0;resizeLast=0;collapsible=1;marginBottom=0;whiteSpace=wrap;html=1;" parent="1" vertex="1" collapsed="1">
                    <mxGeometry x="360" y="313" width="100" height="30" as="geometry">
                        <mxRectangle x="110" y="400" width="480" height="364" as="alternateBounds"/>
                    </mxGeometry>
                </mxCell>
                <mxCell id="56" value="- inputField: JTextField" style="text;strokeColor=none;fillColor=none;align=left;verticalAlign=top;spacingLeft=4;spacingRight=4;overflow=hidden;rotatable=0;points=[[0,0.5],[1,0.5]];portConstraint=eastwest;whiteSpace=wrap;html=1;" parent="55" vertex="1">
                    <mxGeometry y="26" width="480" height="26" as="geometry"/>
                </mxCell>
                <mxCell id="57" value="- chatArea: JTextArea" style="text;strokeColor=none;fillColor=none;align=left;verticalAlign=top;spacingLeft=4;spacingRight=4;overflow=hidden;rotatable=0;points=[[0,0.5],[1,0.5]];portConstraint=eastwest;whiteSpace=wrap;html=1;" parent="55" vertex="1">
                    <mxGeometry y="52" width="480" height="26" as="geometry"/>
                </mxCell>
                <mxCell id="58" value="- sendButton: JButton" style="text;strokeColor=none;fillColor=none;align=left;verticalAlign=top;spacingLeft=4;spacingRight=4;overflow=hidden;rotatable=0;points=[[0,0.5],[1,0.5]];portConstraint=eastwest;whiteSpace=wrap;html=1;" parent="55" vertex="1">
                    <mxGeometry y="78" width="480" height="26" as="geometry"/>
                </mxCell>
                <mxCell id="59" value="- chatList: JList (String) *Generic Type: Convert ( ) to the correct type*" style="text;strokeColor=none;fillColor=none;align=left;verticalAlign=top;spacingLeft=4;spacingRight=4;overflow=hidden;rotatable=0;points=[[0,0.5],[1,0.5]];portConstraint=eastwest;whiteSpace=wrap;html=1;" parent="55" vertex="1">
                    <mxGeometry y="104" width="480" height="26" as="geometry"/>
                </mxCell>
                <mxCell id="60" value="- chatListModel: DefaultListModel (String) *Generic Type: Convert ( ) to the correct type*" style="text;strokeColor=none;fillColor=none;align=left;verticalAlign=top;spacingLeft=4;spacingRight=4;overflow=hidden;rotatable=0;points=[[0,0.5],[1,0.5]];portConstraint=eastwest;whiteSpace=wrap;html=1;" parent="55" vertex="1">
                    <mxGeometry y="130" width="480" height="26" as="geometry"/>
                </mxCell>
                <mxCell id="61" value="- currentChat: String" style="text;strokeColor=none;fillColor=none;align=left;verticalAlign=top;spacingLeft=4;spacingRight=4;overflow=hidden;rotatable=0;points=[[0,0.5],[1,0.5]];portConstraint=eastwest;whiteSpace=wrap;html=1;" parent="55" vertex="1">
                    <mxGeometry y="156" width="480" height="26" as="geometry"/>
                </mxCell>
                <mxCell id="62" value="- buildGUI(): void" style="text;strokeColor=none;fillColor=none;align=left;verticalAlign=top;spacingLeft=4;spacingRight=4;overflow=hidden;rotatable=0;points=[[0,0.5],[1,0.5]];portConstraint=eastwest;whiteSpace=wrap;html=1;" parent="55" vertex="1">
                    <mxGeometry y="182" width="480" height="26" as="geometry"/>
                </mxCell>
                <mxCell id="63" value="- loadChatHistories(): void" style="text;strokeColor=none;fillColor=none;align=left;verticalAlign=top;spacingLeft=4;spacingRight=4;overflow=hidden;rotatable=0;points=[[0,0.5],[1,0.5]];portConstraint=eastwest;whiteSpace=wrap;html=1;" parent="55" vertex="1">
                    <mxGeometry y="208" width="480" height="26" as="geometry"/>
                </mxCell>
                <mxCell id="64" value="- addChat(String chatName): void" style="text;strokeColor=none;fillColor=none;align=left;verticalAlign=top;spacingLeft=4;spacingRight=4;overflow=hidden;rotatable=0;points=[[0,0.5],[1,0.5]];portConstraint=eastwest;whiteSpace=wrap;html=1;" parent="55" vertex="1">
                    <mxGeometry y="234" width="480" height="26" as="geometry"/>
                </mxCell>
                <mxCell id="65" value="- switchChat(String chatName): void" style="text;strokeColor=none;fillColor=none;align=left;verticalAlign=top;spacingLeft=4;spacingRight=4;overflow=hidden;rotatable=0;points=[[0,0.5],[1,0.5]];portConstraint=eastwest;whiteSpace=wrap;html=1;" parent="55" vertex="1">
                    <mxGeometry y="260" width="480" height="26" as="geometry"/>
                </mxCell>
                <mxCell id="66" value="- sendMessage(): void" style="text;strokeColor=none;fillColor=none;align=left;verticalAlign=top;spacingLeft=4;spacingRight=4;overflow=hidden;rotatable=0;points=[[0,0.5],[1,0.5]];portConstraint=eastwest;whiteSpace=wrap;html=1;" parent="55" vertex="1">
                    <mxGeometry y="286" width="480" height="26" as="geometry"/>
                </mxCell>
                <mxCell id="67" value="- startMessageReceiver(): void" style="text;strokeColor=none;fillColor=none;align=left;verticalAlign=top;spacingLeft=4;spacingRight=4;overflow=hidden;rotatable=0;points=[[0,0.5],[1,0.5]];portConstraint=eastwest;whiteSpace=wrap;html=1;" parent="55" vertex="1">
                    <mxGeometry y="312" width="480" height="26" as="geometry"/>
                </mxCell>
                <mxCell id="68" value="- ClientGUI(): " style="text;strokeColor=none;fillColor=none;align=left;verticalAlign=top;spacingLeft=4;spacingRight=4;overflow=hidden;rotatable=0;points=[[0,0.5],[1,0.5]];portConstraint=eastwest;whiteSpace=wrap;html=1;" parent="55" vertex="1">
                    <mxGeometry y="338" width="480" height="26" as="geometry"/>
                </mxCell>
                <mxCell id="69" value="ClientIO" style="swimlane;fontStyle=1;align=center;verticalAlign=top;childLayout=stackLayout;horizontal=1;startSize=26;horizontalStack=0;resizeParent=1;resizeParentMax=0;resizeLast=0;collapsible=1;marginBottom=0;whiteSpace=wrap;html=1;" parent="1" vertex="1">
                    <mxGeometry x="160" y="276" width="120" height="104" as="geometry"/>
                </mxCell>
                <mxCell id="70" value="- socket: Socket" style="text;strokeColor=none;fillColor=none;align=left;verticalAlign=top;spacingLeft=4;spacingRight=4;overflow=hidden;rotatable=0;points=[[0,0.5],[1,0.5]];portConstraint=eastwest;whiteSpace=wrap;html=1;" parent="69" vertex="1">
                    <mxGeometry y="26" width="120" height="26" as="geometry"/>
                </mxCell>
                <mxCell id="71" value="- in: BufferedReader" style="text;strokeColor=none;fillColor=none;align=left;verticalAlign=top;spacingLeft=4;spacingRight=4;overflow=hidden;rotatable=0;points=[[0,0.5],[1,0.5]];portConstraint=eastwest;whiteSpace=wrap;html=1;" parent="69" vertex="1">
                    <mxGeometry y="52" width="120" height="26" as="geometry"/>
                </mxCell>
                <mxCell id="72" value="- out: PrintWriter" style="text;strokeColor=none;fillColor=none;align=left;verticalAlign=top;spacingLeft=4;spacingRight=4;overflow=hidden;rotatable=0;points=[[0,0.5],[1,0.5]];portConstraint=eastwest;whiteSpace=wrap;html=1;" parent="69" vertex="1">
                    <mxGeometry y="78" width="120" height="26" as="geometry"/>
                </mxCell>
                <mxCell id="73" value="SelectServerGUI" style="swimlane;fontStyle=1;align=center;verticalAlign=top;childLayout=stackLayout;horizontal=1;startSize=26;horizontalStack=0;resizeParent=1;resizeParentMax=0;resizeLast=0;collapsible=1;marginBottom=0;whiteSpace=wrap;html=1;" parent="1" vertex="1" collapsed="1">
                    <mxGeometry x="414" y="180" width="130" height="30" as="geometry">
                        <mxRectangle x="340" y="330" width="340" height="156" as="alternateBounds"/>
                    </mxGeometry>
                </mxCell>
                <mxCell id="74" value="- addressField: JTextField" style="text;strokeColor=none;fillColor=none;align=left;verticalAlign=top;spacingLeft=4;spacingRight=4;overflow=hidden;rotatable=0;points=[[0,0.5],[1,0.5]];portConstraint=eastwest;whiteSpace=wrap;html=1;" parent="73" vertex="1">
                    <mxGeometry y="26" width="340" height="26" as="geometry"/>
                </mxCell>
                <mxCell id="75" value="- portField: JTextField" style="text;strokeColor=none;fillColor=none;align=left;verticalAlign=top;spacingLeft=4;spacingRight=4;overflow=hidden;rotatable=0;points=[[0,0.5],[1,0.5]];portConstraint=eastwest;whiteSpace=wrap;html=1;" parent="73" vertex="1">
                    <mxGeometry y="52" width="340" height="26" as="geometry"/>
                </mxCell>
                <mxCell id="76" value="- statusLabel: JLabel" style="text;strokeColor=none;fillColor=none;align=left;verticalAlign=top;spacingLeft=4;spacingRight=4;overflow=hidden;rotatable=0;points=[[0,0.5],[1,0.5]];portConstraint=eastwest;whiteSpace=wrap;html=1;" parent="73" vertex="1">
                    <mxGeometry y="78" width="340" height="26" as="geometry"/>
                </mxCell>
                <mxCell id="77" value="- actionPerformed(ActionEvent e): void" style="text;strokeColor=none;fillColor=none;align=left;verticalAlign=top;spacingLeft=4;spacingRight=4;overflow=hidden;rotatable=0;points=[[0,0.5],[1,0.5]];portConstraint=eastwest;whiteSpace=wrap;html=1;" parent="73" vertex="1">
                    <mxGeometry y="104" width="340" height="26" as="geometry"/>
                </mxCell>
                <mxCell id="78" value="- SelectServerGUI(String serverAddress, String serverPort): " style="text;strokeColor=none;fillColor=none;align=left;verticalAlign=top;spacingLeft=4;spacingRight=4;overflow=hidden;rotatable=0;points=[[0,0.5],[1,0.5]];portConstraint=eastwest;whiteSpace=wrap;html=1;" parent="73" vertex="1">
                    <mxGeometry y="130" width="340" height="26" as="geometry"/>
                </mxCell>
                <mxCell id="80" value="StartClient" style="swimlane;fontStyle=1;align=center;verticalAlign=top;childLayout=stackLayout;horizontal=1;startSize=26;horizontalStack=0;resizeParent=1;resizeParentMax=0;resizeLast=0;collapsible=1;marginBottom=0;whiteSpace=wrap;html=1;" parent="1" vertex="1">
                    <mxGeometry x="270" y="100" width="80" height="30" as="geometry"/>
                </mxCell>
                <mxCell id="85" value="" style="endArrow=open;html=1;endSize=12;startArrow=diamondThin;startSize=14;startFill=1;edgeStyle=orthogonalEdgeStyle;align=left;verticalAlign=bottom;entryX=0.53;entryY=-0.103;entryDx=0;entryDy=0;entryPerimeter=0;exitX=-0.035;exitY=0.393;exitDx=0;exitDy=0;exitPerimeter=0;" edge="1" parent="1" source="35" target="38">
                    <mxGeometry x="-1" y="3" relative="1" as="geometry">
                        <mxPoint x="80" y="190" as="sourcePoint"/>
                        <mxPoint x="240" y="190" as="targetPoint"/>
                    </mxGeometry>
                </mxCell>
                <mxCell id="86" value="" style="endArrow=open;html=1;endSize=12;startArrow=diamondThin;startSize=14;startFill=1;edgeStyle=orthogonalEdgeStyle;align=left;verticalAlign=bottom;" edge="1" parent="1" source="35" target="69">
                    <mxGeometry x="-1" y="3" relative="1" as="geometry">
                        <mxPoint x="240" y="354.52" as="sourcePoint"/>
                        <mxPoint x="400" y="354.52" as="targetPoint"/>
                        <mxPoint as="offset"/>
                    </mxGeometry>
                </mxCell>
                <mxCell id="88" value="" style="endArrow=open;html=1;endSize=12;startArrow=diamondThin;startSize=14;startFill=1;edgeStyle=orthogonalEdgeStyle;align=left;verticalAlign=bottom;" edge="1" parent="1" source="35" target="73">
                    <mxGeometry x="-1" y="3" relative="1" as="geometry">
                        <mxPoint x="280" y="270" as="sourcePoint"/>
                        <mxPoint x="440" y="270" as="targetPoint"/>
                    </mxGeometry>
                </mxCell>
                <mxCell id="89" value="Extends" style="endArrow=block;endSize=16;endFill=0;html=1;" edge="1" parent="1" source="73" target="19">
                    <mxGeometry width="160" relative="1" as="geometry">
                        <mxPoint x="310" y="310" as="sourcePoint"/>
                        <mxPoint x="470" y="310" as="targetPoint"/>
                    </mxGeometry>
                </mxCell>
                <mxCell id="91" value="Extends" style="endArrow=block;endSize=16;endFill=0;html=1;" edge="1" parent="1" source="55" target="19">
                    <mxGeometry width="160" relative="1" as="geometry">
                        <mxPoint x="310" y="310" as="sourcePoint"/>
                        <mxPoint x="470" y="310" as="targetPoint"/>
                    </mxGeometry>
                </mxCell>
                <mxCell id="94" value="" style="endArrow=open;endFill=1;endSize=12;html=1;" edge="1" parent="1" source="80" target="35">
                    <mxGeometry width="160" relative="1" as="geometry">
                        <mxPoint x="400" y="160" as="sourcePoint"/>
                        <mxPoint x="560" y="160" as="targetPoint"/>
                    </mxGeometry>
                </mxCell>
                <mxCell id="95" value="Use" style="endArrow=open;endSize=12;dashed=1;html=1;" edge="1" parent="1" source="55" target="69">
                    <mxGeometry width="160" relative="1" as="geometry">
                        <mxPoint x="380" y="450" as="sourcePoint"/>
                        <mxPoint x="540" y="450" as="targetPoint"/>
                    </mxGeometry>
                </mxCell>
                <mxCell id="96" value="Use" style="endArrow=open;endSize=12;dashed=1;html=1;" edge="1" parent="1" source="55" target="38">
                    <mxGeometry width="160" relative="1" as="geometry">
                        <mxPoint x="270" y="510" as="sourcePoint"/>
                        <mxPoint x="430" y="510" as="targetPoint"/>
                        <Array as="points">
                            <mxPoint x="410" y="425"/>
                        </Array>
                    </mxGeometry>
                </mxCell>
                <mxCell id="97" value="Use" style="endArrow=open;endSize=12;dashed=1;html=1;" edge="1" parent="1" source="73" target="55">
                    <mxGeometry width="160" relative="1" as="geometry">
                        <mxPoint x="260" y="360" as="sourcePoint"/>
                        <mxPoint x="420" y="360" as="targetPoint"/>
                    </mxGeometry>
                </mxCell>
                <mxCell id="98" value="" style="endArrow=open;html=1;endSize=12;startArrow=diamondThin;startSize=14;startFill=1;edgeStyle=orthogonalEdgeStyle;align=left;verticalAlign=bottom;" edge="1" parent="1" source="35" target="55">
                    <mxGeometry x="-1" y="3" relative="1" as="geometry">
                        <mxPoint x="330" y="360" as="sourcePoint"/>
                        <mxPoint x="490" y="360" as="targetPoint"/>
                    </mxGeometry>
                </mxCell>
            </root>
        </mxGraphModel>
    </diagram>
</mxfile>